<svg width="23" height="16" viewBox="0 0 23 16" fill="none" xmlns="http://www.w3.org/2000/svg">
<path d="M11.9073 0.206543C6.9073 0.206543 2.6373 3.31654 0.907295 7.70654C2.6373 12.0965 6.9073 15.2065 11.9073 15.2065C16.9073 15.2065 21.1773 12.0965 22.9073 7.70654C21.1773 3.31654 16.9073 0.206543 11.9073 0.206543ZM11.9073 12.7065C9.14729 12.7065 6.9073 10.4665 6.9073 7.70654C6.9073 4.94654 9.14729 2.70654 11.9073 2.70654C14.6673 2.70654 16.9073 4.94654 16.9073 7.70654C16.9073 10.4665 14.6673 12.7065 11.9073 12.7065Z" fill="#189F5A"/>
<path d="M8.9073 7.70654C8.9073 6.04654 10.2473 4.70654 11.9073 4.70654C13.5673 4.70654 14.9073 6.04654 14.9073 7.70654C14.9073 9.36654 13.5673 10.7065 11.9073 10.7065C10.2473 10.7065 8.9073 9.36654 8.9073 7.70654Z" fill="#189F5A"/>
</svg>
