<svg width="72" height="16" viewBox="0 0 72 16" fill="none" xmlns="http://www.w3.org/2000/svg">
<path d="M11.9073 0.206543C6.9073 0.206543 2.6373 3.31654 0.907295 7.70654C2.6373 12.0965 6.9073 15.2065 11.9073 15.2065C16.9073 15.2065 21.1773 12.0965 22.9073 7.70654C21.1773 3.31654 16.9073 0.206543 11.9073 0.206543ZM11.9073 12.7065C9.14729 12.7065 6.9073 10.4665 6.9073 7.70654C6.9073 4.94654 9.14729 2.70654 11.9073 2.70654C14.6673 2.70654 16.9073 4.94654 16.9073 7.70654C16.9073 10.4665 14.6673 12.7065 11.9073 12.7065Z" fill="#189F5A"/>
<path d="M8.9073 7.70654C8.9073 6.04654 10.2473 4.70654 11.9073 4.70654C13.5673 4.70654 14.9073 6.04654 14.9073 7.70654C14.9073 9.36654 13.5673 10.7065 11.9073 10.7065C10.2473 10.7065 8.9073 9.36654 8.9073 7.70654Z" fill="#189F5A"/>
<path d="M33.9417 6.29254C34.5477 6.29254 35.0277 6.47254 35.3817 6.83254C35.7417 7.18654 35.9217 7.72054 35.9217 8.43454V11.2065H34.5177V8.65054C34.5177 8.26654 34.4367 7.98154 34.2747 7.79554C34.1187 7.60354 33.8937 7.50754 33.5997 7.50754C33.2697 7.50754 33.0087 7.61554 32.8167 7.83154C32.6247 8.04154 32.5287 8.35654 32.5287 8.77654V11.2065H31.1247V8.65054C31.1247 7.88854 30.8187 7.50754 30.2067 7.50754C29.8827 7.50754 29.6247 7.61554 29.4327 7.83154C29.2407 8.04154 29.1447 8.35654 29.1447 8.77654V11.2065H27.7407V6.36454H29.0817V6.92254C29.2617 6.71854 29.4807 6.56254 29.7387 6.45454C30.0027 6.34654 30.2907 6.29254 30.6027 6.29254C30.9447 6.29254 31.2537 6.36154 31.5297 6.49954C31.8057 6.63154 32.0277 6.82654 32.1957 7.08454C32.3937 6.83254 32.6427 6.63754 32.9427 6.49954C33.2487 6.36154 33.5817 6.29254 33.9417 6.29254ZM37.1802 6.36454H38.5842V11.2065H37.1802V6.36454ZM37.8822 5.68954C37.6242 5.68954 37.4142 5.61454 37.2522 5.46454C37.0902 5.31454 37.0092 5.12854 37.0092 4.90654C37.0092 4.68454 37.0902 4.49854 37.2522 4.34854C37.4142 4.19854 37.6242 4.12354 37.8822 4.12354C38.1402 4.12354 38.3502 4.19554 38.5122 4.33954C38.6742 4.48354 38.7552 4.66354 38.7552 4.87954C38.7552 5.11354 38.6742 5.30854 38.5122 5.46454C38.3502 5.61454 38.1402 5.68954 37.8822 5.68954ZM42.8302 6.29254C43.4302 6.29254 43.9132 6.47254 44.2792 6.83254C44.6512 7.19254 44.8372 7.72654 44.8372 8.43454V11.2065H43.4332V8.65054C43.4332 8.26654 43.3492 7.98154 43.1812 7.79554C43.0132 7.60354 42.7702 7.50754 42.4522 7.50754C42.0982 7.50754 41.8162 7.61854 41.6062 7.84054C41.3962 8.05654 41.2912 8.38054 41.2912 8.81254V11.2065H39.8872V6.36454H41.2282V6.93154C41.4142 6.72754 41.6452 6.57154 41.9212 6.46354C42.1972 6.34954 42.5002 6.29254 42.8302 6.29254ZM49.2328 10.9725C49.0948 11.0745 48.9238 11.1525 48.7198 11.2065C48.5218 11.2545 48.3118 11.2785 48.0898 11.2785C47.5138 11.2785 47.0668 11.1315 46.7488 10.8375C46.4368 10.5435 46.2808 10.1115 46.2808 9.54154V7.55254H45.5338V6.47254H46.2808V5.29354H47.6848V6.47254H48.8908V7.55254H47.6848V9.52354C47.6848 9.72754 47.7358 9.88654 47.8378 10.0005C47.9458 10.1085 48.0958 10.1625 48.2878 10.1625C48.5098 10.1625 48.6988 10.1025 48.8548 9.98254L49.2328 10.9725Z" fill="white"/>
<path d="M54.8177 6.00854L52.6937 10.7065H52.2347L50.1197 6.00854H50.5967L52.4687 10.2115L54.3587 6.00854H54.8177ZM55.8016 6.00854H56.2516V10.7065H55.8016V6.00854ZM56.0266 4.86554C55.9246 4.86554 55.8376 4.83254 55.7656 4.76654C55.6936 4.69454 55.6576 4.60754 55.6576 4.50554C55.6576 4.40354 55.6936 4.31654 55.7656 4.24454C55.8376 4.17254 55.9246 4.13654 56.0266 4.13654C56.1286 4.13654 56.2156 4.17254 56.2876 4.24454C56.3596 4.31054 56.3956 4.39454 56.3956 4.49654C56.3956 4.59854 56.3596 4.68554 56.2876 4.75754C56.2156 4.82954 56.1286 4.86554 56.0266 4.86554ZM62.1173 8.46554H58.0763C58.0883 8.83154 58.1813 9.15854 58.3553 9.44654C58.5293 9.72854 58.7633 9.94754 59.0573 10.1035C59.3573 10.2595 59.6933 10.3375 60.0653 10.3375C60.3713 10.3375 60.6533 10.2835 60.9113 10.1755C61.1753 10.0615 61.3943 9.89654 61.5683 9.68054L61.8293 9.97754C61.6253 10.2235 61.3673 10.4125 61.0553 10.5445C60.7493 10.6765 60.4163 10.7425 60.0563 10.7425C59.5883 10.7425 59.1713 10.6405 58.8053 10.4365C58.4393 10.2325 58.1513 9.95054 57.9413 9.59054C57.7373 9.23054 57.6353 8.81954 57.6353 8.35754C57.6353 7.90154 57.7313 7.49354 57.9233 7.13354C58.1213 6.76754 58.3913 6.48254 58.7333 6.27854C59.0753 6.07454 59.4593 5.97254 59.8853 5.97254C60.3113 5.97254 60.6923 6.07454 61.0283 6.27854C61.3703 6.47654 61.6373 6.75554 61.8293 7.11554C62.0273 7.47554 62.1263 7.88354 62.1263 8.33954L62.1173 8.46554ZM59.8853 6.36854C59.5553 6.36854 59.2583 6.44354 58.9943 6.59354C58.7303 6.73754 58.5173 6.94454 58.3553 7.21454C58.1993 7.47854 58.1093 7.77854 58.0853 8.11454H61.6853C61.6673 7.77854 61.5773 7.47854 61.4153 7.21454C61.2533 6.95054 61.0403 6.74354 60.7763 6.59354C60.5123 6.44354 60.2153 6.36854 59.8853 6.36854ZM70.1445 6.00854L68.3625 10.7065H67.9395L66.3555 6.62954L64.7625 10.7065H64.3485L62.5665 6.00854H62.9985L64.5645 10.2025L66.1665 6.00854H66.5535L68.1465 10.1935L69.7305 6.00854H70.1445Z" fill="white"/>
</svg>
